<svg width="314" height="99" viewBox="0 0 314 99" fill="none" xmlns="http://www.w3.org/2000/svg">
<path d="M44.4109 52.84C44.4109 56.7867 43.6109 60.36 42.0109 63.56C40.4109 66.7067 37.9576 69.2133 34.6509 71.08C31.3976 72.8933 27.2376 73.8 22.1709 73.8C15.0776 73.8 9.66427 71.88 5.93094 68.04C2.25094 64.1467 0.410938 59.0267 0.410938 52.68L0.410938 15.88H7.61094L7.61094 52.92C7.61094 57.56 8.8376 61.16 11.2909 63.72C13.7976 66.28 17.5576 67.56 22.5709 67.56C26.0376 67.56 28.8376 66.9467 30.9709 65.72C33.1576 64.44 34.7576 62.7067 35.7709 60.52C36.7843 58.28 37.2909 55.72 37.2909 52.84L37.2909 15.88H44.4109L44.4109 52.84ZM11.2909 4.28C11.2909 2.89333 11.6643 1.90666 12.4109 1.32C13.1576 0.679996 14.0376 0.359996 15.0509 0.359996C16.0643 0.359996 16.9443 0.679996 17.6909 1.32C18.4376 1.90666 18.8109 2.89333 18.8109 4.28C18.8109 5.61333 18.4376 6.62666 17.6909 7.32C16.9443 7.96 16.0643 8.28 15.0509 8.28C14.0376 8.28 13.1576 7.96 12.4109 7.32C11.6643 6.62666 11.2909 5.61333 11.2909 4.28ZM26.3309 4.28C26.3309 2.89333 26.6776 1.90666 27.3709 1.32C28.1176 0.679996 28.9976 0.359996 30.0109 0.359996C31.0243 0.359996 31.9043 0.679996 32.6509 1.32C33.3976 1.90666 33.7709 2.89333 33.7709 4.28C33.7709 5.61333 33.3976 6.62666 32.6509 7.32C31.9043 7.96 31.0243 8.28 30.0109 8.28C28.9976 8.28 28.1176 7.96 27.3709 7.32C26.6776 6.62666 26.3309 5.61333 26.3309 4.28ZM51.7266 73L51.7266 25.8H54.1266L54.1266 73H51.7266ZM58.9266 73L58.9266 25.8H61.3266L61.3266 73H58.9266ZM70.9266 73L70.9266 25.8L75.7266 25.8L75.7266 73H70.9266ZM65.4066 98.84C64.6066 98.84 63.8599 98.6533 63.1666 98.28C62.4732 97.9067 61.8866 97.4 61.4066 96.76L60.6066 98.52H59.2466V78.76H61.7266V78.92C61.6199 79.08 61.5399 79.2133 61.4866 79.32C61.4332 79.48 61.4066 79.72 61.4066 80.04V87C61.8866 86.2533 62.4999 85.6667 63.2466 85.24C63.9932 84.8133 64.7399 84.6 65.4866 84.6C67.1932 84.6 68.5532 85.1867 69.5666 86.36C70.5799 87.5867 71.0866 89.32 71.0866 91.56C71.0866 93.1067 70.8199 94.44 70.2866 95.56C69.7532 96.68 69.0332 97.5067 68.1266 98.04C67.2732 98.5733 66.3666 98.84 65.4066 98.84ZM65.1666 96.92C66.2332 96.92 67.1132 96.4933 67.8066 95.64C68.4999 94.84 68.8466 93.5333 68.8466 91.72C68.8466 89.96 68.5266 88.6533 67.8866 87.8C67.1932 86.8933 66.2866 86.44 65.1666 86.44C64.0466 86.44 63.1399 86.9467 62.4466 87.96C61.7532 88.92 61.4066 90.2 61.4066 91.8C61.4066 95.2133 62.6599 96.92 65.1666 96.92ZM78.1328 73L78.1328 25.8H80.5328L80.5328 73H78.1328ZM82.9328 73L82.9328 25.8H87.7328L87.7328 73H82.9328ZM92.5328 73L92.5328 25.8H94.9328L94.9328 73H92.5328ZM91.9728 98.84C89.9461 98.84 88.3461 98.2267 87.1728 97C85.9461 95.7733 85.3328 94.04 85.3328 91.8C85.3328 90.3067 85.6261 89 86.2128 87.88C86.7461 86.8133 87.4928 86.0133 88.4528 85.48C89.3595 84.8933 90.3995 84.6 91.5728 84.6C93.2261 84.6 94.5595 85.1333 95.5728 86.2C96.5861 87.32 97.0928 88.9467 97.0928 91.08C97.0928 91.2933 97.0928 91.6133 97.0928 92.04H87.4128C87.4661 93.6933 87.9195 94.9467 88.7728 95.8C89.6261 96.6533 90.7195 97.08 92.0528 97.08C93.4928 97.08 94.6661 96.5733 95.5728 95.56L96.7728 96.76C95.5995 98.1467 93.9995 98.84 91.9728 98.84ZM94.9328 90.36C94.9328 89.08 94.6128 88.0667 93.9728 87.32C93.3328 86.5733 92.4795 86.2 91.4128 86.2C90.4528 86.2 89.5995 86.5467 88.8528 87.24C88.1061 87.9333 87.6528 88.9733 87.4928 90.36H94.9328ZM104.539 73L104.539 25.8H106.939L106.939 73H104.539ZM111.739 73L111.739 25.8H114.139L114.139 73H111.739ZM118.939 73V25.8L128.539 25.8V73H118.939ZM120.299 84.6C121.739 84.6 122.939 85.1067 123.899 86.12L122.939 87.72L122.859 88.04L122.619 87.88C122.566 87.6667 122.512 87.5067 122.459 87.4C122.352 87.24 122.166 87.08 121.899 86.92C121.419 86.6 120.832 86.44 120.139 86.44C119.446 86.44 118.779 86.6267 118.139 87C117.499 87.32 116.992 87.8533 116.619 88.6C116.192 89.3467 115.979 90.2533 115.979 91.32L115.979 98.52H113.819V84.92H116.059L115.979 87.4C116.352 86.5467 116.939 85.8533 117.739 85.32C118.539 84.84 119.392 84.6 120.299 84.6ZM130.945 73V25.8H133.345V73H130.945ZM140.545 73V25.8H142.945V73H140.545ZM150.145 73V25.8H154.945V73H150.145ZM145.185 98.84C143.799 98.84 142.572 98.4933 141.505 97.8C140.385 97.1067 139.505 96.0667 138.865 94.68C138.225 93.24 137.905 91.4533 137.905 89.32C137.905 87.08 138.252 85.24 138.945 83.8C139.639 82.4133 140.519 81.4 141.585 80.76C142.652 80.1733 143.799 79.88 145.025 79.88C146.359 79.88 147.505 80.2 148.465 80.84C149.425 81.48 150.145 82.36 150.625 83.48L148.865 84.36L148.625 84.44L148.545 84.28V84.04C148.545 83.8267 148.412 83.5333 148.145 83.16C147.719 82.5733 147.239 82.1467 146.705 81.88C146.172 81.6133 145.612 81.48 145.025 81.48C143.425 81.48 142.172 82.1733 141.265 83.56C140.412 84.8933 139.985 86.7867 139.985 89.24C139.985 90.7333 140.199 92.0933 140.625 93.32C141.105 94.4933 141.719 95.4 142.465 96.04C143.265 96.68 144.145 97 145.105 97C145.852 97 146.545 96.8133 147.185 96.44C147.879 96.0133 148.439 95.4533 148.865 94.76L150.385 95.8C149.745 96.8133 149.025 97.56 148.225 98.04C147.372 98.5733 146.359 98.84 145.185 98.84ZM157.352 73V25.8H162.152V73H157.352ZM166.952 73V25.8H169.352V73H166.952ZM171.752 73V25.8H174.152V73H171.752ZM165.432 96.76H169.512L169.512 80.44H165.672V78.76H171.672L171.672 96.76H175.672V98.52H165.432V96.76ZM183.758 73V25.8H186.158V73H183.758ZM193.358 73V25.8L202.958 25.8V73H193.358ZM205.358 73V25.8H207.758V73H205.358ZM196.958 98.76C195.731 98.76 194.638 98.4667 193.678 97.88C192.771 97.2933 192.051 96.4667 191.518 95.4C190.931 94.3333 190.638 93.1067 190.638 91.72C190.638 90.3333 190.931 89.1067 191.518 88.04C192.051 86.9733 192.771 86.1467 193.678 85.56C194.638 84.92 195.731 84.6 196.958 84.6C198.184 84.6 199.251 84.92 200.158 85.56C201.118 86.1467 201.864 86.9733 202.398 88.04C202.931 89.1067 203.198 90.3333 203.198 91.72C203.198 93.1067 202.931 94.3333 202.398 95.4C201.864 96.4667 201.118 97.2933 200.158 97.88C199.251 98.4667 198.184 98.76 196.958 98.76ZM196.958 97C197.704 97 198.398 96.76 199.038 96.28C199.624 95.8533 200.104 95.24 200.478 94.44C200.798 93.5867 200.958 92.6533 200.958 91.64C200.958 90.0933 200.584 88.84 199.838 87.88C199.091 86.92 198.131 86.44 196.958 86.44C195.784 86.44 194.824 86.92 194.078 87.88C193.331 88.84 192.958 90.0933 192.958 91.64C192.958 92.6533 193.118 93.5867 193.438 94.44C193.811 95.24 194.291 95.8533 194.878 96.28C195.464 96.76 196.158 97 196.958 97ZM210.164 73V25.8H212.564V73H210.164ZM222.164 73V25.8H224.564V73H222.164ZM226.964 73V25.8H231.764V73L226.964 73ZM224.404 98.84C223.071 98.84 221.897 98.5467 220.884 97.96C219.871 97.32 219.071 96.4667 218.484 95.4C217.897 94.3333 217.604 93.1067 217.604 91.72C217.604 90.3867 217.897 89.1867 218.484 88.12C219.071 87.0533 219.871 86.2 220.884 85.56C221.897 84.9733 223.071 84.68 224.404 84.68C225.471 84.68 226.457 84.8933 227.364 85.32C228.217 85.7467 228.937 86.36 229.524 87.16L228.164 88.52L228.004 88.68L227.844 88.52C227.844 88.36 227.791 88.2 227.684 88.04C227.631 87.9333 227.497 87.7733 227.284 87.56C226.857 87.1867 226.404 86.92 225.924 86.76C225.391 86.5467 224.804 86.44 224.164 86.44C223.364 86.44 222.644 86.6533 222.004 87.08C221.311 87.5067 220.777 88.12 220.404 88.92C219.977 89.6667 219.764 90.5467 219.764 91.56C219.764 92.5733 219.977 93.5067 220.404 94.36C220.831 95.16 221.391 95.7733 222.084 96.2C222.831 96.68 223.631 96.92 224.484 96.92C225.871 96.92 227.071 96.36 228.084 95.24L229.284 96.68C227.951 98.12 226.324 98.84 224.404 98.84ZM236.57 73V25.8H241.37V73H236.57ZM250.97 73V25.8H253.37V73H250.97ZM258.17 73V25.8H260.57V73H258.17ZM248.25 91.72L246.49 93.4V98.52H244.33V78.76H246.73V78.92C246.624 79.08 246.544 79.2133 246.49 79.32C246.49 79.48 246.49 79.72 246.49 80.04V91.16L253.29 84.84C253.77 84.9467 254.304 85 254.89 85H255.61L249.93 90.44L256.57 98.52L253.85 98.6L248.25 91.72ZM262.977 73V25.8H265.377V73H262.977ZM267.777 73V25.8L272.577 25.8V73H267.777ZM277.377 73V25.8H279.777V73H277.377ZM276.817 98.84C274.79 98.84 273.19 98.2267 272.017 97C270.79 95.7733 270.177 94.04 270.177 91.8C270.177 90.3067 270.47 89 271.057 87.88C271.59 86.8133 272.337 86.0133 273.297 85.48C274.203 84.8933 275.243 84.6 276.417 84.6C278.07 84.6 279.403 85.1333 280.417 86.2C281.43 87.32 281.937 88.9467 281.937 91.08C281.937 91.2933 281.937 91.6133 281.937 92.04H272.257C272.31 93.6933 272.763 94.9467 273.617 95.8C274.47 96.6533 275.563 97.08 276.897 97.08C278.337 97.08 279.51 96.5733 280.417 95.56L281.617 96.76C280.443 98.1467 278.843 98.84 276.817 98.84ZM279.777 90.36C279.777 89.08 279.457 88.0667 278.817 87.32C278.177 86.5733 277.323 86.2 276.257 86.2C275.297 86.2 274.443 86.5467 273.697 87.24C272.95 87.9333 272.497 88.9733 272.337 90.36H279.777ZM289.383 73V25.8H291.783V73H289.383ZM301.383 73V25.8H303.783V73H301.383ZM308.583 73V25.8H313.383V73H308.583ZM302.103 98.84C301.143 98.84 300.236 98.5467 299.383 97.96C298.529 97.4267 297.836 96.6267 297.303 95.56C296.769 94.44 296.503 93.1067 296.503 91.56C296.503 90.0133 296.769 88.7067 297.303 87.64C297.889 86.6267 298.609 85.8533 299.463 85.32C300.316 84.84 301.223 84.6 302.183 84.6C303.143 84.6 303.943 84.7867 304.583 85.16C305.276 85.5867 305.809 86.1733 306.183 86.92V78.76H308.423V78.92C308.316 79.08 308.236 79.2133 308.183 79.32C308.183 79.48 308.183 79.72 308.183 80.04V96.44C308.183 96.92 308.209 97.2933 308.263 97.56C308.263 97.88 308.343 98.2 308.503 98.52H306.423C306.263 98.2 306.156 97.88 306.103 97.56C306.103 97.2933 306.103 96.92 306.103 96.44C305.676 97.1867 305.116 97.7733 304.423 98.2C303.729 98.6267 302.956 98.84 302.103 98.84ZM302.423 96.92C303.649 96.92 304.556 96.44 305.143 95.48C305.729 94.52 306.023 93.24 306.023 91.64C306.023 90.04 305.703 88.76 305.063 87.8C304.423 86.84 303.489 86.36 302.263 86.36C301.089 86.36 300.183 86.7867 299.543 87.64C298.903 88.5467 298.583 89.7467 298.583 91.24C298.583 93 298.903 94.3867 299.543 95.4C300.236 96.4133 301.196 96.92 302.423 96.92Z" fill="white"/>
</svg>
