<svg width="86" height="86" viewBox="0 0 86 86" fill="none" xmlns="http://www.w3.org/2000/svg">
<g clip-path="url(#clip0_165_370)">
<path d="M19.1479 19.4461H27.7399L33.4965 48.2077C33.6929 49.1966 34.2309 50.0849 35.0163 50.7172C35.8017 51.3494 36.7844 51.6853 37.7925 51.6659H58.6709C59.679 51.6853 60.6617 51.3494 61.4471 50.7172C62.2325 50.0849 62.7705 49.1966 62.9669 48.2077L66.4037 30.186H29.8879M38.4798 62.4059C38.4798 63.5922 37.5182 64.5539 36.3319 64.5539C35.1456 64.5539 34.1839 63.5922 34.1839 62.4059C34.1839 61.2196 35.1456 60.2579 36.3319 60.2579C37.5182 60.2579 38.4798 61.2196 38.4798 62.4059ZM62.1077 62.4059C62.1077 63.5922 61.146 64.5539 59.9597 64.5539C58.7734 64.5539 57.8117 63.5922 57.8117 62.4059C57.8117 61.2196 58.7734 60.2579 59.9597 60.2579C61.146 60.2579 62.1077 61.2196 62.1077 62.4059Z" stroke="white" stroke-width="4" stroke-linecap="round" stroke-linejoin="round"/>
</g>
<circle cx="43.0403" cy="42.9598" r="41.4598" stroke="white" stroke-width="3"/>
<defs>
<clipPath id="clip0_165_370">
<rect width="51.5517" height="51.5517" fill="white" transform="translate(17 17)"/>
</clipPath>
</defs>
</svg>
