<svg width="95" height="95" viewBox="0 0 95 95" fill="none" xmlns="http://www.w3.org/2000/svg">
<path d="M70.154 73.0769V67.2308C70.154 64.1298 68.9221 61.1558 66.7294 58.9631C64.5367 56.7703 61.5627 55.5385 58.4617 55.5385H35.0771C31.9761 55.5385 29.0021 56.7703 26.8094 58.9631C24.6166 61.1558 23.3848 64.1298 23.3848 67.2308V73.0769M58.4617 32.1539C58.4617 38.6113 53.2269 43.8462 46.7694 43.8462C40.3119 43.8462 35.0771 38.6113 35.0771 32.1539C35.0771 25.6964 40.3119 20.4615 46.7694 20.4615C53.2269 20.4615 58.4617 25.6964 58.4617 32.1539Z" stroke="white" stroke-width="4" stroke-linecap="round" stroke-linejoin="round"/>
<circle cx="47.5" cy="47.5" r="46" stroke="white" stroke-width="3"/>
</svg>
